<svg xmlns="http://www.w3.org/2000/svg" viewBox="9 5.6 601.5 207"><path stroke="#FFF" stroke-width="1.5" stroke-miterlimit="10" d="M609.8 182.3c0 18.2-13.4 29.6-31.6 29.6H42.8c-18.2 0-33-14.8-33-33V39.4c0-18.2 14.8-33 33-33h535.4c18.2 0 31.6 14.8 31.6 33v142.9z"/><g fill="#FFF"><path d="M419.8 153.8l-4.5 4.2c-1 .6-2.1 1.2-3.1 1.7-3.1 1.4-6.3 1.8-9.1 1.8-3 0-7.7-.2-12.5-3.7-6.7-4.7-9.6-12.8-9.6-19.9 0-14.6 11.9-21.8 21.6-21.8 3.4 0 6.9.8 9.7 2.6 4.7 3.1 5.9 7.2 6.6 9.3l-22.1 8.9-7.2.6c2.3 12 10.4 18.9 19.4 18.9 4.5 0 7.8-1.5 10.8-3-.2.3.4 0 0 .4zM406.4 130c1.8-.7 2.7-1.2 2.7-2.5 0-3.8-4.3-8.1-9.3-8.1-3.8 0-10.8 2.9-10.8 13.1 0 1.6.2 3.3.3 5l17.1-7.5zM373.5 153.1c0 3.7.7 4.2 3.7 4.5 1.6.2 3.2.3 4.8.5l-3.5 2.1H362c2.2-2.8 2.6-3.1 2.6-5V97.1h-7.3l7.1-3.4h13.5c-2.9 1.7-3.8 2.7-4.2 6l-.2 53.4z"/><path d="M347.8 120.9c2.2 1.8 6.7 5.6 6.7 12.7 0 7-3.9 10.3-7.9 13.4-1.2 1.2-2.6 2.6-2.6 4.6 0 2.1 1.4 3.2 2.4 4.1l3.4 2.6c4.1 3.5 7.9 6.7 7.9 13.2 0 8.9-8.6 17.8-24.8 17.8-13.6 0-20.2-6.5-20.2-13.5 0-3.4 1.7-8.2 7.3-11.5 5.8-3.6 13.8-4 18-4.3-1.3-1.7-2.8-3.5-2.8-6.4 0-1.6.5-2.5.9-3.7-1 .1-2.1.2-3 .2-10 0-15.6-7.5-15.6-14.8 0-4.3 2-9.1 6-12.6 5.4-4.4 11.8-5.2 16.9-5.2h19.4l-6 3.4h-6zm-6.7 41.8c-.8-.1-1.2-.1-2.2-.1-.9 0-5.9.2-9.9 1.5-2.1.8-8.1 3-8.1 9.7 0 6.7 6.5 11.5 16.6 11.5 9 0 13.8-4.3 13.8-10.2 0-4.8-3.1-7.3-10.2-12.4zm2.7-17.9c2.2-2.2 2.4-5.2 2.4-6.9 0-6.8-4-17.3-11.9-17.3-2.4 0-5.1 1.2-6.6 3.1-1.6 2-2.1 4.5-2.1 7 0 6.3 3.7 16.8 11.8 16.8 2.4-.1 4.9-1.2 6.4-2.7zM289.4 161.4c-15 0-23-11.7-23-22.2 0-12.3 10.1-22.9 24.4-22.9 13.8 0 22.5 10.8 22.5 22.2 0 11.1-8.6 22.9-23.9 22.9zm11.7-7.6c2.3-3 2.8-6.8 2.8-10.4 0-8.3-4-24.1-15.6-24.1-3.1 0-6.2 1.2-8.5 3.2-3.7 3.3-4.3 7.4-4.3 11.5 0 9.3 4.6 24.7 16 24.7 3.7-.2 7.5-1.9 9.6-4.9zM239.2 161.4c-15 0-23-11.7-23-22.2 0-12.3 10.1-22.9 24.4-22.9 13.8 0 22.5 10.8 22.5 22.2 0 11.1-8.5 22.9-23.9 22.9zm11.8-7.6c2.3-3 2.8-6.8 2.8-10.4 0-8.3-4-24.1-15.6-24.1-3.1 0-6.2 1.2-8.5 3.2-3.7 3.3-4.3 7.4-4.3 11.5 0 9.3 4.6 24.7 16 24.7 3.7-.2 7.4-1.9 9.6-4.9zM210.3 158.1l-12.6 2.9c-5.1.8-9.7 1.5-14.6 1.5-24.4 0-33.6-17.9-33.6-32 0-17.1 13.1-33 35.7-33 4.8 0 9.4.7 13.5 1.8 6.6 1.9 9.7 4.2 11.6 5.5l-7.3 7-3.1.7 2.2-3.5c-3-2.9-8.5-8.3-18.9-8.3-13.9 0-24.4 10.6-24.4 26.1 0 16.6 12 32.2 31.2 32.2 5.7 0 8.6-1.1 11.2-2.2v-14.2l-13.3.7 7.1-3.8h18.7l-2.3 2.2c-.6.5-.7.7-.9 1.4-.1.8-.2 3.4-.2 4.3v10.7z"/><g><path d="M446.9 154.2v24h-4.8v-61h4.8v7c3.1-4.5 8.8-8.1 15.4-8.1 11.8 0 19.8 9 19.8 23.2 0 14.1-8 23.2-19.8 23.2-6.2 0-11.8-3.2-15.4-8.3zm30.1-15c0-10.7-5.6-18.8-15.5-18.8-6.1 0-12 4.8-14.6 9v19.5c2.6 4.2 8.4 9.2 14.6 9.2 9.9.1 15.5-8.2 15.5-18.9zM488.6 161.4v-61h4.8v61h-4.8zM546.8 174.3c1 .5 2.8.7 3.9.7 2.9 0 4.9-1.2 6.8-5.4l3.5-7.9-18.8-44.6h5.3l16.1 38.6 15.9-38.6h5.4l-22.9 54c-2.4 5.6-6.1 8.2-11.2 8.2-1.5 0-3.6-.3-4.8-.6l.8-4.4zM532.9 161.2c-.3-1.5-.6-2.9-.7-4-.1-1.1-.2-2.3-.2-3.4-1.6 2.4-3.9 4.4-6.9 6-3 1.6-5.8 2.4-9.6 2.4-4.6 0-8.2-1.1-10.8-3.5-2.6-2.3-3.9-5.4-3.9-9.4s1.9-7.2 5.6-9.6c3.7-2.5 8.5-3.7 14.5-3.7H532v-5.5c0-3.2-1.1-5.6-3.2-7.5-2.2-1.8-5.2-2.7-9.1-2.7-3.6 0-6.5.8-8.7 2.5-2.2 1.7-3.3 3.7-3.3 6.2h-4.9l-.1-.2c-.2-3.3 1.4-6.3 4.6-8.8 3.2-2.5 7.5-3.8 12.7-3.8 5.2 0 9.4 1.3 12.6 3.7 3.2 2.5 4.8 6 4.8 10.7v21.8c0 1.6.1 3.1.3 4.6.2 1.5.5 2.9.9 4.4l-5.7-.2zm-16.9-3.4c4 0 7-.9 9.9-2.7 3-1.8 5-4.1 6-6.9v-8.5h-11.2c-4.3 0-7.8.9-10.6 2.8s-4.2 4.2-4.2 6.9c0 2.5.9 4.5 2.7 6.1 1.9 1.5 4.3 2.3 7.4 2.3z"/></g></g><path fill="none" d="M87.2 136.7l15.3-15.2-15.3 15.2L38.4 88l48.8 48.7-48.9 48.9 48.9-48.9 15.4 15.4"/><linearGradient id="a" gradientUnits="userSpaceOnUse" x1="843.362" y1="554.821" x2="778.952" y2="595.131" gradientTransform="rotate(45 -369.904 -1136.17)"><stop offset="0" stop-color="#D6FFA1"/><stop offset=".326" stop-color="#93E2A7"/><stop offset="1" stop-color="#00A3B5"/></linearGradient><path fill="url(#a)" d="M102.5 121.5L42.9 88.7c-1.7-.9-3.2-1.1-4.5-.7l48.8 48.8 15.3-15.3z"/><linearGradient id="b" gradientUnits="userSpaceOnUse" x1="805.911" y1="589.257" x2="889.426" y2="567.425" gradientTransform="rotate(45 -369.904 -1136.17)"><stop offset="0" stop-color="#FF177B"/><stop offset=".672" stop-color="#FFA976"/><stop offset="1" stop-color="#FFEC73"/></linearGradient><path fill="url(#b)" d="M102.6 152.1l20.3-11.2c4.1-2.3 4.1-6 0-8.2l-20.4-11.2-15.3 15.3 15.4 15.3z"/><linearGradient id="c" gradientUnits="userSpaceOnUse" x1="852.531" y1="524.244" x2="761.972" y2="577.524" gradientTransform="rotate(45 -369.904 -1136.17)"><stop offset="0" stop-color="#63FFD4"/><stop offset=".485" stop-color="#32A0BA"/><stop offset=".835" stop-color="#1262A9"/><stop offset="1" stop-color="#064AA2"/></linearGradient><path fill="url(#c)" d="M38.4 88c-1.8.6-3 2.4-3 5.2v87.3c0 2.7 1.1 4.6 2.9 5.2l48.9-48.9L38.4 88z"/><linearGradient id="d" gradientUnits="userSpaceOnUse" x1="885.411" y1="566.546" x2="829.651" y2="493.086" gradientTransform="rotate(45 -369.904 -1136.17)"><stop offset="0" stop-color="#FF4521"/><stop offset=".341" stop-color="#D43E65"/><stop offset=".793" stop-color="#9F36B9"/><stop offset="1" stop-color="#8A33DB"/></linearGradient><path fill="url(#d)" d="M38.3 185.6c1.3.4 2.9.2 4.6-.7l59.6-32.8-15.4-15.4-48.8 48.9z"/><g><g fill="#FFF"><path d="M149.3 50.2c0-9.4 7-15.4 15.6-15.4 5.8 0 9.6 2.8 12 6.2l-4.2 2.5c-1.6-2.2-4.4-4-7.7-4-5.9 0-10.3 4.5-10.3 10.8 0 6.2 4.4 10.8 10.3 10.8 3 0 5.7-1.4 7.1-2.7v-4.6h-8.9v-4.6h14.1v11.1c-2.9 3.3-7.1 5.5-12.2 5.5-8.8-.1-15.8-6.2-15.8-15.6zM183.7 65.1V35.3h20.4v4.6h-15.2v7.7h14.9v4.6h-14.9v8.3h15.2v4.6h-20.4zM218.5 65.1V39.9h-9v-4.6h23.3v4.6h-9v25.2h-5.3zM251 65.1V35.3h5.2v29.8H251zM270.7 65.1V39.9h-9v-4.6H285v4.6h-9v25.2h-5.3zM301.9 50.2c0-8.9 6.3-15.4 15.2-15.4 8.9 0 15.2 6.5 15.2 15.4s-6.3 15.4-15.2 15.4c-8.9.1-15.2-6.5-15.2-15.4zm25.1 0c0-6.2-3.9-10.8-9.9-10.8s-9.9 4.6-9.9 10.8c0 6.1 3.8 10.8 9.9 10.8 6 0 9.9-4.6 9.9-10.8zM359.2 65.1l-15.5-21.3v21.3h-5.2V35.3h5.4L359 56V35.3h5.2v29.8h-5z"/></g></g></svg>