<svg xmlns="http://www.w3.org/2000/svg" viewBox="0 0 280 220"><path fill="#F5AE23" d="M140 199.4c71.7 0 130.4-56.6 133.7-127.5H6.3c3.3 70.8 62 127.5 133.7 127.5z"/><path fill="#3E3B38" d="M140 150.3c44.6 0 81.3-34.7 84.5-78.5h-169c3.2 43.8 39.9 78.5 84.5 78.5z"/><path fill="#717D8C" d="M139.9 150.3c19.6 0 37.6-6.7 51.9-17.8-14-11.8-32.1-18.9-51.8-18.9-19.8 0-37.9 7.2-51.9 19 14.4 11.1 32.3 17.7 51.8 17.7z"/><path fill="#3E3B38" d="M66 44.3c1.1-.5 2.1-1 3.3-1.5.3-.1.7-.3 1-.4 1.1-.5 2.3-1 3.5-1.4.3-.1.6-.2.8-.3.7-.3 1.5-.6 2.2-.8l7.7-17.7 14.3 11.4c-3.4-10-7.8-21.4-14.3-21.4-10.8 0-20.7 21.1-23.5 34.7 1.3-.7 2.6-1.4 4-2 .3-.3.6-.4 1-.6z"/><path fill="#E83D3E" d="M76.7 39.8c6.8-2.5 14.2-4.6 22.1-6.3L84.4 22.1l-7.7 17.7z"/><path fill="#13110C" d="M203.2 39.8c.6.2 1.3.5 1.9.7.4.2.8.3 1.2.5l3 1.2 1.5.6c.9.4 1.7.8 2.5 1.2.6.3 1.2.5 1.7.8.7.3 1.3.7 2 1 .7.3 1.3.7 2 1-2.8-13.6-12.7-34.7-23.5-34.7-6.5 0-10.9 11.4-14.3 21.4l14.3-11.4 7.7 17.7z"/><path fill="#E83D3E" d="M203.2 39.8l-7.7-17.7-14.3 11.4c7.8 1.7 15.1 3.8 22 6.3z"/><path fill="#717D8C" d="M131.3 29.5c1 0 2.1-.1 3.1-.1-1 0-2 0-3.1.1zM119.8 30.3c1.4-.1 2.8-.3 4.2-.4-1.4.1-2.8.3-4.2.4zM86.1 52.6l33-22.2c-7 .7-13.8 1.8-20.3 3.2-7.8 1.7-15.2 3.8-22.1 6.3-.7.3-1.5.6-2.2.8-.3.1-.6.2-.8.3-1.2.5-2.3.9-3.5 1.4-.3.1-.7.3-1 .4l-3.3 1.5c-.3.2-.7.3-1 .5-1.4.7-2.7 1.3-4 2l25.2 5.8zM125.2 29.8c1.3-.1 2.6-.2 4-.3-1.4.2-2.7.2-4 .3z"/><path fill="#56616F" d="M145.4 29.4c1 0 2.1.1 3.1.1-1-.1-2-.1-3.1-.1zM155.9 29.9c1.4.1 2.8.2 4.2.4-1.4-.1-2.8-.3-4.2-.4z"/><path fill="#56616F" d="M139.9 29.3l14.7 23.3 21.5 8.3V17.6"/><path fill="#56616F" d="M150.7 29.6c1.3.1 2.7.2 4 .3-1.3-.2-2.6-.2-4-.3z"/><path fill="#3E3B38" d="M119.1 30.4l20.8 7 20.9-7V2.3"/><path fill="#56616F" d="M218.9 46.9c0-.1 0-.1 0 0-.7-.4-1.3-.7-2-1-.7-.3-1.3-.7-2-1-.6-.3-1.2-.5-1.7-.8-.8-.4-1.7-.8-2.5-1.2l-1.5-.6-3-1.2c-.4-.2-.8-.3-1.2-.5-.6-.2-1.3-.5-1.9-.7-6.8-2.5-14.2-4.6-22-6.3-6.5-1.4-13.3-2.4-20.3-3.2l33 22.2 25.1-5.7z"/><path fill="#E83D3E" d="M139.8 94.2c-11.4 0-22.2-7.1-26.3.3-5.9 10.6 14.1 23.9 26.3 23.9h.1c12.1 0 32.2-13.3 26.3-23.9-4.1-7.4-14.9-.3-26.4-.3.1 0 .1 0 0 0 .1 0 .1 0 0 0 .1 0 .1 0 0 0zM152 94c2.9-.7 5.7-1.3 7.9-1.3h.8c.2 0 .4 0 .6.1h.2c.2 0 .4.1.6.1 1.2.4 2.1 1.1 2.8 2.3 1.3 2.4 1.1 5.1-.6 8.1-.9 1.5-2.1 2.9-3.5 4.3-.2.2-.3.3-.5.4-.2.1-.3.3-.5.4-.4.3-.8.7-1.2 1l-.3.3c-3.9 3-8.7 5.4-13.3 6.5-.3.1-.7.2-1 .2h-.1c-.4.1-.8.1-1.2.2h-.2c-.3 0-.5.1-.8.1h-.3-3.3c-.2 0-.4 0-.6-.1-.2 0-.3 0-.5-.1h-.3-.1c-.1 0-.2 0-.4-.1-.2 0-.3-.1-.5-.1s-.4-.1-.6-.1c-.1 0-.2 0-.3-.1-.1 0-.2-.1-.3-.1-.3-.1-.6-.2-.9-.2-.1 0-.3-.1-.4-.1h-.1c-.4-.1-.8-.3-1.2-.4-.1 0-.1-.1-.2-.1h-.1c-.2-.1-.3-.1-.5-.2s-.4-.1-.6-.2c-.2-.1-.3-.1-.5-.2-.1 0-.1 0-.2-.1-.1 0-.2-.1-.4-.1-.1 0-.2-.1-.3-.1-.2-.1-.4-.2-.5-.2l-.6-.3c-.1-.1-.2-.1-.3-.2-.1-.1-.2-.1-.3-.2-.2-.1-.5-.3-.7-.4-.1-.1-.3-.1-.4-.2-.1 0-.2-.1-.2-.1-.2-.1-.4-.3-.7-.4-.1-.1-.3-.2-.4-.3-.1 0-.2-.1-.2-.1-.2-.1-.3-.2-.5-.3-.1-.1-.3-.2-.4-.3-.1-.1-.2-.1-.3-.2-.1-.1-.2-.1-.2-.2-.2-.1-.3-.2-.5-.3-.1 0-.1-.1-.2-.1-.1-.1-.3-.2-.4-.3-.2-.1-.3-.2-.5-.4-.1-.1-.2-.2-.4-.3-.4-.3-.8-.7-1.2-1-.2-.1-.3-.3-.5-.5-.2-.1-.3-.3-.5-.4-1.4-1.4-2.6-2.8-3.5-4.3-1.7-3-2-5.7-.6-8.1.5-1 1.2-1.7 2.2-2.1.2-.1.4-.2.6-.2.2-.1.4-.1.6-.1h.2c.2 0 .4-.1.6-.1h.8c2.2 0 5 .6 7.9 1.3 3.7.8 7.8 1.8 12 1.8h.1c4.1 0 8.2-1 11.9-1.8z"/><path fill="#9C2018" d="M126 112.7c.1 0 .2.1.2.1s-.1 0-.1-.1h-.1z"/><path fill="#13110C" d="M139.9 29.3l14.7 23.3 6.2-22.2 15.3-12.8"/><path fill="#9C2018" d="M121.2 109.5c.1.1.2.2.4.3-.1-.1-.3-.2-.4-.3zM134.7 117.2c.1 0 .2 0 .3.1h-.1c-.1-.1-.1-.1-.2-.1zM127.7 113.6c.1.1.2.1.3.2 0 0-.1 0-.1-.1-.1-.1-.1-.1-.2-.1z"/><path fill="#6D1D17" d="M127 97.1c-1 1.3-2.6 2.2-4.4 2.2-3.1 0-5.6-2.5-5.6-5.5v-.6c-.9.4-1.6 1.1-2.2 2.1-1.3 2.4-1.1 5.1.6 8.1.9 1.5 2.1 2.9 3.5 4.3 4.7-4.1 9.5-7.2 14.1-8.8-2.2-.5-4.3-1.1-6-1.8z"/><path fill="#9C2018" d="M131.5 116.2c-.2-.1-.3-.1-.5-.2.2.1.4.2.5.2zM117.1 93.2c.2-.1.4-.2.6-.2-.2.1-.4.1-.6.2zM124.6 111.9c-.2-.1-.3-.2-.5-.3.2.1.3.2.5.3zM123.2 110.9c-.2-.1-.3-.2-.5-.3.1.1.3.2.5.3zM129.8 115.6c-.1 0-.2-.1-.4-.1.2 0 .3 0 .4.1zM133 116.7c.1.1.1.1 0 0 .1.1.1.1 0 0 .1.1 0 .1 0 0zM118.5 92.8c.2 0 .4-.1.6-.1-.2.1-.4.1-.6.1zM117.7 93c.2-.1.4-.1.6-.1-.2 0-.4 0-.6.1zM120 108.5c-.2-.1-.3-.3-.5-.5.2.2.3.4.5.5zM161.4 92.8c.2 0 .4.1.6.1-.1 0-.3 0-.6-.1zM160.7 92.7c.2 0 .4 0 .6.1-.2 0-.4 0-.6-.1zM160.2 108.1c-.2.1-.3.3-.5.4.2-.1.4-.3.5-.4zM144.9 117.3z"/><path fill="#6D1D17" d="M162.7 93.8c0 3.1-2.5 5.5-5.6 5.5-1.8 0-3.4-.8-4.4-2.1-1.7.7-3.7 1.2-6 1.6 4.6 1.6 9.4 4.7 14 8.8 1.4-1.4 2.6-2.8 3.5-4.3 1.7-3 2-5.7.6-8.1-.7-1.2-1.5-1.9-2.8-2.3.2.1.4.1.6.2.1.3.1.5.1.7z"/><path fill="#9C2018" d="M158.2 109.8l.3-.3-.3.3z"/><path fill="#6D1D17" d="M131.8 116.3c-.1 0-.1-.1-.2-.1 0 .1.1.1.2.1zM125.3 112.3c-.1-.1-.3-.2-.4-.3.1.1.2.2.4.3zM129.2 114.3c-.2-.1-.4-.2-.5-.2.1 0 .3.1.5.2zM123.7 111.3c-.1-.1-.2-.1-.3-.2.1 0 .2.1.3.2z"/><path fill="#F5AE23" d="M122.8 148.5l-7.7-31c-10 3.3-19.1 8.4-27 15 10.1 7.8 21.8 13.4 34.7 16zM157.3 148.5l7.7-31c10 3.3 19.1 8.4 27 15-10.1 7.8-21.9 13.4-34.7 16z"/><path fill="#6D1D17" d="M122.5 110.5c-.1-.1-.3-.2-.4-.3.1.1.3.2.4.3zM130.5 115.8c-.2-.1-.3-.1-.5-.2.2.1.3.2.5.2zM127.3 113.4c.1.1.2.1.3.2.1 0 .1.1.2.1-.1-.1-.3-.2-.5-.3zM126.1 112.7s.1 0 .1.1c.1.1.3.1.4.2-.2-.1-.4-.2-.5-.3zM134.4 117.1c.1 0 .2.1.3.1h.2c-.2 0-.4 0-.5-.1zM133.1 116.8c.2.1.3.1.4.1-.1-.1-.3-.1-.4-.1z"/><path fill="#13110C" d="M139.9 99.3c-2.4 0-4.7-.2-6.8-.5-4.6 1.6-9.4 4.7-14.1 8.8.2.2.3.3.5.4l.5.5c.4.3.8.7 1.2 1 .1.1.2.2.4.3.6-2 2.3-3.5 4.4-3.5 1.6 0 2.9.8 3.8 2.1 3.5-1.5 7-2.4 10.1-2.4h.1c3.1 0 6.6.9 10.1 2.4.8-1.3 2.2-2.1 3.8-2.1 2.1 0 3.8 1.5 4.4 3.5l.3-.3c.4-.3.8-.7 1.2-1 .2-.1.3-.3.5-.4.2-.1.3-.3.5-.4-4.7-4.1-9.5-7.2-14-8.8-2.2.2-4.5.4-6.9.4z"/><path fill="#E83D3E" d="M130.5 111.7c3 .5 6.1.8 9.3.8h.2c3.1 0 6.3-.3 9.3-.8v-.6c0-1 .3-2 .8-2.7-3.5-1.5-7-2.4-10.1-2.4h-.1c-3.1 0-6.6.9-10.1 2.4.5.8.8 1.7.8 2.8 0 .1-.1.3-.1.5z"/><path fill="#FFF" d="M139.8 95.8c-4.2 0-8.4-.9-12-1.8-2.9-.7-5.7-1.3-7.9-1.3h-.8c-.2 0-.4 0-.6.1h-.2c-.2 0-.4.1-.6.1-.2.1-.4.1-.6.2v.6c0 3.1 2.5 5.5 5.6 5.5 1.8 0 3.4-.9 4.4-2.2 1.7.7 3.7 1.3 6.1 1.6 2.1.3 4.4.5 6.8.5 2.4 0 4.7-.2 6.8-.5 2.3-.4 4.4-.9 6-1.6 1 1.3 2.6 2.1 4.4 2.1 3.1 0 5.6-2.5 5.6-5.5V93c-.2-.1-.4-.2-.6-.2-.2-.1-.4-.1-.6-.1h-.2c-.2 0-.4-.1-.6-.1h-.8c-2.2 0-5 .6-7.9 1.3-3.8.9-7.9 1.9-12.3 1.9zM153.8 106.3c-1.6 0-2.9.8-3.8 2.1-.5.8-.8 1.7-.8 2.7v.6c-3 .5-6.1.8-9.3.8h-.2c-3.1 0-6.3-.3-9.3-.8v-.6c0-1-.3-2-.8-2.8-.8-1.3-2.2-2.1-3.8-2.1-2.1 0-3.8 1.5-4.4 3.5.2.1.3.2.5.4.1.1.3.2.4.3.1 0 .1.1.2.1.2.1.3.2.5.3.1.1.2.1.2.2.1.1.2.1.3.2.1.1.3.2.4.3.2.1.3.2.5.3.1 0 .2.1.2.1.1.1.3.2.4.3.2.1.4.3.7.4 0 0 .1 0 .1.1.2.1.3.2.5.3.2.1.5.3.7.4.2.1.4.2.5.3 0 0 .1 0 .1.1l.6.3c.2.1.4.2.5.2.1 0 .2.1.3.1.1.1.2.1.4.1.1 0 .1.1.2.1.2.1.3.1.5.2s.4.1.6.2c.2.1.3.1.5.2h.1c.1 0 .1.1.2.1.4.1.8.3 1.2.4.1 0 .3.1.4.1.3.1.6.2.9.2.2 0 .3.1.5.1h.1c.2.1.4.1.6.1.2 0 .3.1.5.1.1 0 .2.1.4.1h.4c.2 0 .3 0 .5.1.2 0 .4 0 .6.1h3.6c.3 0 .5-.1.8-.1h.2c.4-.1.8-.1 1.2-.2h.1c.3-.1.7-.1 1-.2 4.5-1.1 9.4-3.5 13.3-6.5-.1-1.8-1.9-3.3-4-3.3z"/><path fill="#3E3B38" d="M64.9 66.9l42.7 20.2 32.3-21.8v-36c-1.8 0-3.7 0-5.5.1-1 0-2.1.1-3.1.1-.7 0-1.5.1-2.2.1-1.3.1-2.7.2-4 .3-.4 0-.8.1-1.2.1-1.4.1-2.8.2-4.2.4-.2 0-.5 0-.7.1L86 52.7 64.9 66.9zM106.6 49c7.8 0 14.1 6.3 14.1 14.1s-6.3 14.1-14.1 14.1-14.1-6.3-14.1-14.1S98.8 49 106.6 49z"/><path fill="#13110C" d="M139.9 65.3l32.3 21.8L215 66.9l-21.2-14.3-33-22.2c-.2 0-.5 0-.7-.1-1.4-.1-2.8-.3-4.2-.4-.4 0-.8-.1-1.2-.1-1.3-.1-2.6-.2-4-.3-.7 0-1.5-.1-2.2-.1-1 0-2.1-.1-3.1-.1-1.8 0-3.6-.1-5.5-.1v36.1z"/><path fill="#FFF" d="M159.1 60.8c-.1.7-.2 1.5-.2 2.2 0 7.8 6.3 14.1 14.1 14.1s14.1-6.3 14.1-14.1c0-3-1-5.8-2.6-8.1l-25.4 5.9zM92.5 63.1c0 7.8 6.3 14.1 14.1 14.1s14.1-6.3 14.1-14.1S114.4 49 106.6 49s-14.1 6.3-14.1 14.1z"/><path fill="#13110C" d="M102 67.4c0 3.1 2.5 5.6 5.6 5.6s5.6-2.5 5.6-5.6c0-.5-.1-1-.2-1.4-.4.3-.9.4-1.5.4-1.6 0-2.9-1.3-2.9-2.9 0-.5.2-1 .4-1.5-.5-.1-.9-.2-1.4-.2-3.1.1-5.6 2.6-5.6 5.6zM171.9 73c3.1 0 5.6-2.5 5.6-5.6 0-.5-.1-1-.2-1.4-.4.3-.9.4-1.5.4-1.6 0-2.9-1.3-2.9-2.9 0-.5.2-1 .4-1.5-.5-.1-.9-.2-1.4-.2-3.1 0-5.6 2.5-5.6 5.6.1 3.1 2.6 5.6 5.6 5.6zM153.4 83.5l-13.5-13.7v13.7"/><path fill="#9C2018" d="M153.4 83.5h-13.5v5.1"/><path fill="#3E3B38" d="M139.9 83.5V69.8l-13.4 13.7"/><path fill="#E83D3E" d="M126.5 83.5l13.4 5.1v-5.1"/><path fill="#FFF" d="M139.9 133.5s65.9-18.6 80.4-63.6c.2-2.2.3-4.4.3-6.6 0-5.6-.6-11.1-1.7-16.5l-25.1 5.8L215 66.9l-42.7 20.2L140 65.3l-32.3 21.8-42.8-20.2 21.2-14.3L61 46.8c-1.1 5.3-1.7 10.8-1.7 16.5 0 2.2.1 4.5.3 6.6 14.4 45 80.3 63.6 80.3 63.6zm0-63.7l13.4 13.7-13.4 5-13.4-5 13.4-13.7zm-26.4 24.7c4.1-7.4 15-.3 26.3-.3h.1c11.3 0 22.2-7.1 26.3.3 5.9 10.6-14.1 23.9-26.3 23.9h-.1c-12.1.1-32.1-13.2-26.3-23.9z"/><path fill="none" d="M70.3 44.4c-.3.1-.7.3-1 .4.3-.1.6-.2 1-.4zM66 46.3c-.3.2-.7.3-1 .5.3-.2.7-.3 1-.5zM215 46.8c-.6-.3-1.2-.5-1.7-.8.6.3 1.2.5 1.7.8z"/><path fill="#3E3B38" d="M229 71.8c-3.1 46.4-41.8 83.1-89 83.1s-85.9-36.7-89-83.1H9.2c3.2 69.5 60.5 124.9 130.8 124.9 70.3 0 127.6-55.4 130.8-124.9H229z"/><g fill="#FFF"><path d="M44.6 99.9c-.1 0-.2-.2-.3-.4l-1.1-4.2c-.1-.4-.3-.5-.6-.4L25 99.5c-.4.1-.6-.1-.7-.5l-.7-2.8c-.1-.4 0-.7.4-.8l17.5-4.6c.2 0 .3-.1.4-.2.1-.1.1-.2 0-.5l-1.1-4c-.1-.4.1-.7.5-.8l2.3-.6c.4-.1.7 0 .8.4L48 98.5c.1.4 0 .6-.4.7l-2.3.6c-.4.1-.6.1-.7.1zM52.4 109.1c1 2 1.2 3.8.7 5.5-.5 1.6-1.7 2.9-3.6 3.8-1.2.6-2.4.8-3.7.7-1.3-.1-2.4-.4-3.5-.8-.2-.1-.4 0-.5.2 0 0-.2.2-.5.6-.3.4-.8.9-1.3 1.6-.5.7-1.2 1.4-1.9 2.3-.7.9-1.4 1.7-2.2 2.7-.2.2-.3.3-.5.3s-.3-.2-.4-.4l-1.2-2.5c-.2-.4-.3-.8-.2-1 .1-.2.2-.4.4-.6l5.5-6.4c.2-.1.2-.3.1-.6l-1-2.2c-.1-.2-.3-.2-.5-.1l-7.1 3.3c-.4.2-.6 0-.8-.4l-1.2-2.5c-.2-.4-.1-.7.2-.8l19.6-9.3c.4-.2.7-.1.8.3l2.8 6.3zm-9.2 4.7c.1.1.1.2.2.3.1.1.2.2.3.2.7.3 1.4.5 2 .5.7 0 1.2-.1 1.7-.3.8-.4 1.4-.9 1.7-1.7.3-.7.3-1.6-.2-2.5l-1.2-2.6c-.1-.2-.2-.3-.3-.3-.1 0-.3 0-.4.1l-5.1 2.4c-.2.1-.3.2-.3.2-.1.1 0 .2.1.4l1.5 3.3zM49.1 144.5c-.1.1-.2.2-.4.3-.2.1-.4 0-.6-.3l-1.8-2.4c-.2-.3-.3-.6-.1-.9l2.5-2.9c.1-.2.2-.3.2-.4 0-.1 0-.2-.1-.3l-3.3-4.4c-.1-.2-.2-.2-.3-.2-.1 0-.2 0-.4.1s-.4.2-.8.3c-.3.1-.6.3-1 .4-.4.2-.7.3-1 .5-.3.1-.6.3-.7.3-.2.1-.3.1-.5 0-.1-.1-.3-.2-.3-.3l-1.7-2.3c-.2-.3-.3-.5-.2-.6.1-.1.2-.2.4-.3l20.5-8.5c.3-.1.6 0 .9.3l2.5 3.4c.1.1.2.3.2.4 0 .1 0 .3-.2.5l-13.8 17.3zm6-13.6l2.9-3.2c.1-.1.1-.1.1-.2s-.1-.1-.2 0l-3.9 1.8-4.9 2.2c-.1.1-.2.1-.2.2 0 0 0 .1.1.3l2.3 3.1c.1.2.3.2.4 0l3.4-4.2zM58.1 154.8c-.8-.7-1.4-1.5-1.8-2.4-.4-.8-.7-1.7-.8-2.5-.1-.9 0-1.7.3-2.5s.8-1.6 1.5-2.4l7-7.5c.7-.7 1.4-1.3 2.2-1.6.8-.3 1.7-.5 2.5-.5.9 0 1.7.2 2.6.6.9.4 1.7.9 2.4 1.6.9.9 1.7 1.9 2.2 3 .5 1.1.7 2.5.5 4.1 0 .2-.1.3-.2.5-.1.1-.3.2-.6.1l-2.5-.3c-.2 0-.4-.2-.5-.3-.1-.2-.1-.4-.1-.6.2-1.5-.2-2.7-1.3-3.8-.8-.7-1.5-1-2.3-1-.8.1-1.5.4-2 1l-6.9 7.4c-.5.6-.8 1.2-.8 2s.4 1.5 1.2 2.2c.5.5 1.1.8 1.7 1 .7.2 1.3.2 2 .1h.5c.2 0 .3.1.4.4l.7 2.5c.1.2.1.4 0 .5-.1.2-.2.3-.4.3-1.5.4-2.9.3-4.2-.1-1.2-.1-2.3-.8-3.3-1.8zM82.7 171.9c-.2.3-.5.4-.8.2l-2.5-1.6c-.3-.2-.4-.5-.2-.8l3.2-5.9c.2-.3.3-.7.5-1.1.1-.4.2-.8.1-1.2 0-.4-.2-.8-.4-1.2-.2-.4-.6-.8-1.2-1.1-.9-.6-1.8-.8-2.7-.5-.9.2-1.6.8-2.1 1.6l-3.5 5.5c-.2.3-.5.4-.8.2l-2.7-1.7c-.3-.2-.3-.4-.1-.7l11.7-18.3c.2-.3.5-.4.8-.2l2.5 1.6c.3.2.4.5.2.8l-4.1 6.5c-.1.2-.1.3 0 .3h.3l9.7-3.3c.2-.1.4-.1.5-.1.1 0 .3.1.5.3l2.8 1.8c.2.1.3.3.2.4 0 .1-.1.3-.3.3l-9.8 3.3c-.3.1-.3.3-.1.4.2.1.3.2.5.3.2.1.3.2.4.4 1.2 1 1.8 2.2 1.9 3.6.1 1.3-.4 2.7-1.2 4.1l-3.3 6.1zM199.2 148.6c0 .1-.1.3-.3.4l-3.7 2.3c-.3.2-.4.4-.2.7l9.5 15.4c.2.3.1.6-.3.9l-2.4 1.5c-.4.2-.7.2-.9-.1l-9.5-15.4-.3-.3c-.1 0-.3 0-.5.1l-3.5 2.2c-.4.2-.7.1-.9-.2l-1.2-2c-.2-.4-.2-.6.2-.9l11.8-7.3c.3-.2.6-.1.8.2l1.3 2c.1.2.1.3.1.5zM205.7 138.4c1.7-1.5 3.3-2.2 5-2.2 1.7 0 3.2.8 4.6 2.4.9 1 1.4 2.1 1.7 3.3.3 1.3.3 2.5.2 3.6 0 .2.1.4.3.5 0 0 .3.1.7.3.5.2 1.1.5 1.9.8.8.3 1.7.7 2.7 1.2 1 .4 2.1.9 3.2 1.3.3.1.4.2.4.4s-.1.4-.2.5l-2.1 1.9c-.4.3-.7.5-.9.5-.2 0-.5-.1-.7-.2l-7.7-3.4c-.2-.1-.4-.1-.6.1l-1.8 1.6c-.2.1-.2.3 0 .5l5.2 5.8c.3.3.2.6-.1.9l-2.1 1.9c-.3.3-.6.3-.9 0L200 144c-.3-.3-.3-.6 0-.9l5.7-4.7zm7.2 7.5l.3-.3c.1-.1.1-.2.1-.3.1-.7.1-1.4-.1-2.1-.2-.7-.5-1.2-.8-1.5-.6-.7-1.3-1.1-2.1-1.2-.8-.1-1.6.2-2.4.9l-2.1 1.9c-.2.1-.2.3-.2.4 0 .1.1.2.2.4l3.8 4.2c.1.1.2.2.3.2.1 0 .2 0 .4-.2l2.6-2.4zM240.6 131.4c.1 0 .3.1.4.3.1.1.1.4-.1.6l-1.8 2.4c-.2.3-.5.4-.8.3l-3.5-1.5c-.2-.1-.3-.1-.4-.1-.1 0-.2.1-.3.2l-3.3 4.4c-.1.2-.2.3-.1.4s.1.2.2.3c.1.2.3.4.5.6.2.3.5.5.7.8.3.3.5.6.7.8.2.3.4.5.5.6.1.1.2.3.1.4 0 .2-.1.3-.2.4l-1.7 2.3c-.2.3-.4.4-.5.4-.2 0-.3-.1-.4-.3l-14.1-17.2c-.2-.3-.2-.6.1-.9l2.5-3.4.3-.3c.1-.1.3-.1.5 0l20.7 8.5zm-14.7-1.8l-3.9-1.8h-.2s0 .1.1.2l2.8 3.2 3.6 4.1c.1.1.2.1.2.2.1 0 .1 0 .2-.2l2.3-3.1c.1-.2.1-.3-.2-.4l-4.9-2.2zM248 119.8c-.5 1-1.1 1.8-1.7 2.4-.7.7-1.4 1.1-2.2 1.5-.8.3-1.6.5-2.5.4-.9 0-1.8-.3-2.7-.7l-9.2-4.6c-.9-.4-1.6-1-2.2-1.7-.6-.7-1-1.4-1.2-2.3-.2-.8-.3-1.7-.2-2.6.1-.9.4-1.9.9-2.8.6-1.1 1.3-2.1 2.3-3 .9-.8 2.2-1.4 3.8-1.6.2 0 .4 0 .5.1.1.1.2.3.3.5l.5 2.5c0 .2 0 .4-.2.5-.1.1-.3.2-.5.2-1.5.2-2.6 1-3.2 2.3-.5.9-.5 1.8-.2 2.5s.8 1.3 1.5 1.7l9 4.5c.7.4 1.4.4 2.2.2.7-.2 1.3-.8 1.8-1.7.3-.6.4-1.3.4-1.9 0-.7-.2-1.3-.4-1.9-.1-.2-.1-.3-.2-.5s0-.4.3-.5l2.2-1.4c.2-.1.3-.2.5-.1.2 0 .3.1.4.3.8 1.4 1.2 2.7 1.1 4-.2 1.2-.5 2.5-1.1 3.7zM257.2 91.3c.4.1.5.3.4.7l-.8 2.9c-.1.4-.3.5-.7.4l-6.6-1.4c-.4-.1-.8-.1-1.2-.1-.4 0-.8.1-1.2.2-.4.1-.7.4-1 .7-.3.4-.5.8-.7 1.5-.3 1.1-.2 2 .3 2.8.5.8 1.2 1.3 2.2 1.6l6.3 1.8c.4.1.5.3.4.7l-.8 3c-.1.3-.3.4-.7.3l-20.9-5.8c-.4-.1-.5-.4-.4-.8l.8-2.9c.1-.4.3-.5.7-.4l7.4 2.1c.2.1.3 0 .3-.1s0-.2-.1-.3l-5.9-8.3c-.1-.2-.2-.3-.2-.5 0-.1 0-.3.1-.6l.9-3.2c.1-.2.2-.3.3-.4.1 0 .3 0 .4.2l6 8.4c.2.3.4.3.4 0 .1-.2.1-.4.2-.6 0-.2.1-.4.2-.5.7-1.4 1.6-2.4 2.9-2.8 1.3-.4 2.7-.4 4.3 0l6.7 1.4z"/></g><g><g fill="#3E3B38"><path d="M140 152.3c45.7 0 83.3-35.5 86.6-80.5h-2c-3.3 43.8-39.9 78.5-84.5 78.5s-81.3-34.7-84.5-78.5h-2c3.1 45 40.7 80.5 86.4 80.5z"/><path d="M273.7 71.8c-3.3 70.9-62 127.5-133.7 127.5-71.7.1-130.4-56.6-133.7-127.5h-2c3.3 72 62.9 129.5 135.7 129.5 72.8 0 132.4-57.5 135.7-129.5h-2z"/></g><path fill="#3E3B38" d="M15.2 56.3L17 60l4.2.6-3 2.9.7 4.1-3.7-1.9-3.7 1.9.7-4.1-3-2.9 4.1-.6M45.2 56.3l1.9 3.7 4.1.6-3 2.9.7 4.1-3.7-1.9-3.7 1.9.7-4.1-2.9-2.9 4.1-.6M30.5 56.3l1.8 3.7 4.2.6-3 2.9.7 4.1-3.7-1.9-3.7 1.9.7-4.1-3-2.9 4.1-.6"/><g><path fill="#3E3B38" d="M234.9 56.3l1.9 3.7 4.1.6-3 2.9.7 4.1-3.7-1.9-3.7 1.9.7-4.1-2.9-2.9 4.1-.6M265 56.3l1.8 3.7 4.2.6-3 2.9.7 4.1-3.7-1.9-3.7 1.9.7-4.1-3-2.9 4.1-.6M250.2 56.3l1.9 3.7 4.1.6-3 2.9.7 4.1-3.7-1.9-3.7 1.9.7-4.1-2.9-2.9 4.1-.6"/></g></g><g><path fill="#F5AE23" d="M153.6 212.1c-7.6 7.6-19.8 7.6-27.4 0L104 189.8c-7.6-7.6-7.6-19.8 0-27.4l22.2-22.3c7.6-7.6 19.8-7.6 27.4 0l22.2 22.3c7.6 7.6 7.6 19.8 0 27.4l-22.2 22.3z"/></g><path fill="#EC6830" d="M175.9 162.4l-22.2-22.3c-3.8-3.8-8.7-5.7-13.7-5.7s-9.9 1.9-13.7 5.7L104 162.4c-7.6 7.6-7.6 19.8 0 27.4l22.2 22.3c3.8 3.8 8.7 5.7 13.7 5.7s9.9-1.9 13.7-5.7l22.2-22.3c7.6-7.5 7.6-19.8.1-27.4zm-8.4 24.2l-17.1 17.1c-2.9 2.9-6.7 4.4-10.5 4.4s-7.6-1.5-10.5-4.4l-17.1-17.1c-5.8-5.8-5.8-15.2 0-21l17.1-17.1c2.9-2.9 6.7-4.4 10.5-4.4s7.6 1.5 10.5 4.4l17.1 17.1c5.8 5.8 5.8 15.2 0 21z"/><path fill="#F5AE23" d="M167.5 165.6l-17.1-17.1c-2.9-2.9-6.7-4.4-10.5-4.4s-7.6 1.5-10.5 4.4l-17.1 17.1c-5.8 5.8-5.8 15.2 0 21l17.1 17.1c2.9 2.9 6.7 4.4 10.5 4.4s7.6-1.5 10.5-4.4l17.1-17.1c5.8-5.8 5.8-15.2 0-21zm-8.3 17.8l-11.9 11.9c-2 2-4.7 3-7.3 3-2.6 0-5.3-1-7.3-3l-11.9-11.9c-4-4-4-10.6 0-14.7l11.9-11.9c2-2 4.7-3 7.3-3 2.7 0 5.3 1 7.3 3l11.9 11.9c4 4.1 4 10.7 0 14.7z"/><path fill="#FFD019" d="M159.2 168.8l-11.9-11.9c-2-2-4.7-3-7.3-3-2.6 0-5.3 1-7.3 3l-11.9 11.9c-4 4-4 10.6 0 14.7l11.9 11.9c2 2 4.7 3 7.3 3 2.7 0 5.3-1 7.3-3l11.9-11.9c4-4.1 4-10.7 0-14.7z"/><g><path fill="#FFF" d="M132.5 166.1v20.1l20.6-9.9"/></g></svg>