<svg xmlns="http://www.w3.org/2000/svg" viewBox="3.5 56.2 455 119.7"><path stroke="#FFF" stroke-width="2" stroke-miterlimit="10" d="M457.5 162.8c0 6.6-5.4 12-12 12h-429c-6.6 0-12-5.4-12-12V69.2c0-6.6 5.4-12 12-12h429c6.6 0 12 5.4 12 12v93.6z"/><g fill="#FFF"><path d="M58 81.7c-3.5 1.2-6 2.3-6 8.9v3.2l2.1-.4v-2.7c0-4.5 1.1-5.4 4.1-6.7 0-1-.1-1.8-.2-2.3zM64 80.2c.1.6.2 1.3.3 2.1 5.4-.8 5.3 1.5 5.3 6.1v1.7l2.1-.4v-1.3c0-7.2-1.1-9.1-7.7-8.2z"/><path d="M42.6 95.6V86c-.1-5.9 3-7.7 8.6-9 8.5-2 9 3.5 9 7v8.1l2.1-.4v-7.5c0-6.6-2.1-11.5-11.5-9.4-5.1 1.2-10.3 2.5-10.3 11.1V96l2.1-.4zM82.1 90.2l-57.2 11.4v41.6l57.2 11.4 11.4-4.2v-56l-11.4-4.2zM50 134.6l-12.8-1.8v-10.7H50v12.5zm0-13.5H37.2V111l12.8-1.8v11.9zM67.5 137L51 134.7v-12.6h16.5V137zm0-15.9H51v-12l16.5-2.3v14.3z"/></g><g fill="#FFF"><path d="M117 86.5c1.7-.3 3.8-.5 6.1-.5 4.1 0 7 1 9 2.8 2 1.8 3.1 4.4 3.1 7.9 0 3.6-1.1 6.6-3.2 8.6-2.1 2.1-5.5 3.2-9.8 3.2-2 0-3.7-.1-5.2-.3V86.5zm2.9 19.6c.7.1 1.8.2 2.9.2 6.1 0 9.4-3.4 9.4-9.4 0-5.2-2.9-8.5-9-8.5-1.5 0-2.6.1-3.3.3v17.4zM153 100.3c0 5.9-4.1 8.4-7.9 8.4-4.3 0-7.6-3.2-7.6-8.2 0-5.3 3.5-8.4 7.9-8.4 4.5 0 7.6 3.3 7.6 8.2zm-12.6.2c0 3.5 2 6.1 4.8 6.1s4.8-2.6 4.8-6.2c0-2.7-1.3-6.1-4.8-6.1s-4.8 3.1-4.8 6.2zM157 92.5l2.1 8.1c.5 1.8.9 3.4 1.2 5.1h.1c.4-1.6.9-3.3 1.4-5l2.6-8.1h2.4l2.5 7.9c.6 1.9 1.1 3.6 1.4 5.2h.1c.3-1.6.7-3.3 1.2-5.2l2.3-8h2.9l-5.1 15.9h-2.6l-2.4-7.6c-.6-1.8-1-3.3-1.4-5.2h-.1c-.4 1.9-.9 3.5-1.4 5.3l-2.6 7.6H159l-4.8-15.9 2.8-.1zM179.8 96.8c0-1.6 0-3-.1-4.3h2.6l.2 2.6h.1c.8-1.5 2.6-3 5.3-3 2.2 0 5.6 1.3 5.6 6.8v9.5h-2.9v-9.2c0-2.6-1-4.7-3.7-4.7-1.9 0-3.4 1.3-3.9 3-.1.4-.2.9-.2 1.3v9.6h-2.9V96.8zM197.4 85.1h2.9v23.3h-2.9V85.1zM219.2 100.3c0 5.9-4.1 8.4-7.9 8.4-4.3 0-7.6-3.2-7.6-8.2 0-5.3 3.5-8.4 7.9-8.4 4.5 0 7.6 3.3 7.6 8.2zm-12.6.2c0 3.5 2 6.1 4.8 6.1s4.8-2.6 4.8-6.2c0-2.7-1.3-6.1-4.8-6.1s-4.8 3.1-4.8 6.2zM231.3 108.4l-.2-2h-.1c-.9 1.2-2.6 2.4-4.9 2.4-3.2 0-4.9-2.3-4.9-4.6 0-3.8 3.4-5.9 9.6-5.9V98c0-1.3-.4-3.7-3.6-3.7-1.5 0-3 .5-4.1 1.2l-.7-1.9c1.3-.9 3.2-1.4 5.2-1.4 4.9 0 6 3.3 6 6.5v5.9c0 1.4.1 2.7.3 3.8h-2.6zm-.4-8.1c-3.2-.1-6.7.5-6.7 3.6 0 1.9 1.2 2.8 2.7 2.8 2.1 0 3.4-1.3 3.8-2.7.1-.3.2-.6.2-.9v-2.8zM251.7 85.1v19.2c0 1.4 0 3 .1 4.1h-2.6l-.1-2.8h-.1c-.9 1.8-2.8 3.1-5.4 3.1-3.8 0-6.8-3.3-6.8-8.1 0-5.3 3.2-8.5 7.1-8.5 2.4 0 4.1 1.1 4.8 2.4h.1V85h2.9zm-2.9 13.8c0-.4 0-.9-.1-1.2-.4-1.8-2-3.3-4.2-3.3-3 0-4.8 2.6-4.8 6.1 0 3.2 1.6 5.9 4.7 5.9 1.9 0 3.7-1.3 4.2-3.4.1-.4.1-.8.1-1.2l.1-2.9zM263.7 108.4V94.7h-2.2v-2.2h2.2v-.8c0-2.2.5-4.3 1.8-5.6 1.1-1.1 2.5-1.5 3.9-1.5 1 0 1.9.2 2.5.5l-.4 2.2c-.4-.2-1-.4-1.8-.4-2.5 0-3.1 2.2-3.1 4.6v.9h3.8v2.2h-3.8v13.7h-2.9zM272.8 97.4c0-1.9 0-3.5-.1-5h2.5l.1 3.1h.1c.7-2.1 2.5-3.5 4.4-3.5.3 0 .6 0 .8.1v2.7c-.3-.1-.6-.1-1-.1-2 0-3.5 1.5-3.9 3.7-.1.4-.1.9-.1 1.3v8.5h-2.9V97.4h.1zM297.4 100.3c0 5.9-4.1 8.4-7.9 8.4-4.3 0-7.6-3.2-7.6-8.2 0-5.3 3.5-8.4 7.9-8.4 4.5 0 7.6 3.3 7.6 8.2zm-12.6.2c0 3.5 2 6.1 4.8 6.1s4.8-2.6 4.8-6.2c0-2.7-1.3-6.1-4.8-6.1-3.4 0-4.8 3.1-4.8 6.2zM300.6 96.8c0-1.6 0-3-.1-4.3h2.5l.1 2.6h.1c.9-1.5 2.4-2.9 5-2.9 2.2 0 3.8 1.3 4.5 3.2h.1c.5-.9 1.1-1.6 1.8-2.1 1-.7 2-1.1 3.5-1.1 2.1 0 5.2 1.4 5.2 6.9v9.4h-2.8v-9c0-3.1-1.1-4.9-3.4-4.9-1.6 0-2.9 1.2-3.4 2.6-.1.4-.2.9-.2 1.4v9.8h-2.8v-9.5c0-2.5-1.1-4.4-3.3-4.4-1.8 0-3.1 1.4-3.6 2.9-.2.4-.2.9-.2 1.4v9.6h-2.8l-.2-11.6zM120.6 149.1L115 127h3l2.6 11.2c.7 2.8 1.2 5.5 1.6 7.6h.1c.4-2.2 1.1-4.8 1.8-7.7l3-11.2h3l2.7 11.2c.6 2.6 1.2 5.3 1.5 7.6h.1c.5-2.4 1.1-4.9 1.8-7.7l2.9-11.2h2.9l-6.3 22.1h-3l-2.8-11.5c-.7-2.8-1.1-5-1.4-7.2h-.1c-.4 2.2-.9 4.4-1.7 7.2l-3.2 11.5-2.9.2zM147.7 128.8c0 1-.7 1.8-1.8 1.8-1 0-1.7-.8-1.7-1.8s.8-1.8 1.8-1.8 1.7.7 1.7 1.8zm-3.2 20.3v-15.9h2.9v15.9h-2.9zM151.6 137.5c0-1.6 0-3-.1-4.3h2.6l.2 2.6h.1c.8-1.5 2.6-3 5.3-3 2.2 0 5.6 1.3 5.6 6.8v9.5h-2.9V140c0-2.6-1-4.7-3.7-4.7-1.9 0-3.4 1.3-3.9 3-.1.4-.2.9-.2 1.3v9.6h-2.9l-.1-11.7zM183.1 125.8V145c0 1.4 0 3 .1 4.1h-2.6l-.1-2.8h-.1c-.9 1.8-2.8 3.1-5.4 3.1-3.8 0-6.8-3.2-6.8-8.1 0-5.3 3.2-8.5 7.1-8.5 2.4 0 4.1 1.1 4.8 2.4h.1v-9.5c.1.1 2.9.1 2.9.1zm-2.8 13.9c0-.4 0-.9-.1-1.2-.4-1.8-2-3.4-4.2-3.4-3 0-4.8 2.6-4.8 6.1 0 3.2 1.6 5.9 4.7 5.9 1.9 0 3.7-1.3 4.2-3.4.1-.4.1-.8.1-1.2l.1-2.8zM201.9 141c0 5.9-4.1 8.4-7.9 8.4-4.3 0-7.6-3.2-7.6-8.2 0-5.3 3.5-8.4 7.9-8.4 4.5.1 7.6 3.4 7.6 8.2zm-12.6.2c0 3.5 2 6.1 4.8 6.1s4.8-2.6 4.8-6.2c0-2.7-1.3-6.1-4.8-6.1s-4.8 3.2-4.8 6.2zM206 133.2l2.1 8.1c.5 1.8.9 3.4 1.2 5.1h.1c.4-1.6.9-3.3 1.4-5l2.6-8.1h2.4l2.5 7.9c.6 1.9 1.1 3.6 1.4 5.2h.1c.3-1.6.7-3.3 1.2-5.2l2.3-8h2.9l-5.1 15.9h-2.6l-2.4-7.6c-.6-1.8-1-3.4-1.4-5.2h-.1c-.4 1.9-.9 3.5-1.4 5.3l-2.6 7.6H208l-4.8-15.9 2.8-.1zM228.1 146.2c.9.6 2.4 1.1 3.8 1.1 2.1 0 3.1-1.1 3.1-2.4 0-1.4-.8-2.1-3-2.9-2.9-1-4.2-2.6-4.2-4.5 0-2.6 2.1-4.7 5.5-4.7 1.6 0 3 .5 3.9 1l-.7 2.1c-.6-.4-1.8-.9-3.2-.9-1.7 0-2.7 1-2.7 2.2 0 1.3 1 1.9 3 2.7 2.8 1.1 4.2 2.4 4.2 4.8 0 2.8-2.2 4.8-5.9 4.8-1.7 0-3.4-.4-4.5-1.1l.7-2.2zM248.5 127.3c1.4-.2 3.2-.4 5.5-.4 2.8 0 4.9.7 6.2 1.8 1.2 1.1 1.9 2.7 1.9 4.6 0 2-.6 3.6-1.7 4.7-1.5 1.6-4 2.4-6.8 2.4-.9 0-1.6 0-2.3-.2v8.9h-2.9l.1-21.8zm2.9 10.6c.6.2 1.4.2 2.4.2 3.4 0 5.6-1.7 5.6-4.7 0-2.9-2.1-4.3-5.2-4.3-1.2 0-2.2.1-2.7.2l-.1 8.6zM265 125.8h2.9v9.9h.1c.5-.8 1.2-1.5 2.1-2 .9-.5 1.9-.8 3-.8 2.1 0 5.5 1.3 5.5 6.8v9.5h-2.9V140c0-2.6-1-4.7-3.7-4.7-1.9 0-3.4 1.3-3.9 2.9-.2.4-.2.8-.2 1.4v9.6H265v-23.4zM297.2 141c0 5.9-4.1 8.4-7.9 8.4-4.3 0-7.6-3.2-7.6-8.2 0-5.3 3.5-8.4 7.9-8.4 4.5.1 7.6 3.4 7.6 8.2zm-12.6.2c0 3.5 2 6.1 4.8 6.1s4.8-2.6 4.8-6.2c0-2.7-1.3-6.1-4.8-6.1-3.3 0-4.8 3.2-4.8 6.2zM300.5 137.5c0-1.6 0-3-.1-4.3h2.6l.2 2.6h.1c.8-1.5 2.6-3 5.3-3 2.2 0 5.6 1.3 5.6 6.8v9.5h-2.9V140c0-2.6-1-4.7-3.7-4.7-1.9 0-3.4 1.3-3.9 3-.1.4-.2.9-.2 1.3v9.6h-2.9l-.1-11.7zM319.9 141.7c.1 3.9 2.6 5.5 5.5 5.5 2.1 0 3.3-.4 4.4-.8l.5 2.1c-1 .5-2.8 1-5.3 1-4.9 0-7.8-3.2-7.8-8s2.8-8.6 7.5-8.6c5.2 0 6.6 4.6 6.6 7.5 0 .6-.1 1.1-.1 1.3h-11.3zm8.5-2.1c0-1.8-.8-4.7-4-4.7-2.9 0-4.2 2.7-4.4 4.7h8.4zM341.4 145.6c1.3.8 3.2 1.4 5.1 1.4 2.9 0 4.6-1.5 4.6-3.8 0-2.1-1.2-3.2-4.2-4.4-3.6-1.3-5.8-3.2-5.8-6.3 0-3.4 2.9-6 7.2-6 2.3 0 3.9.5 4.9 1.1l-.8 2.3c-.7-.4-2.2-1.1-4.2-1.1-3 0-4.2 1.8-4.2 3.3 0 2.1 1.3 3.1 4.4 4.3 3.7 1.4 5.6 3.3 5.6 6.5 0 3.4-2.5 6.4-7.7 6.4-2.1 0-4.5-.6-5.6-1.4l.7-2.3zM360.3 128.7v4.6h4.1v2.2h-4.1v8.6c0 2 .6 3.1 2.2 3.1.8 0 1.3-.1 1.7-.2l.1 2.2c-.6.2-1.4.4-2.6.4-1.3 0-2.4-.4-3.1-1.2-.8-.9-1.1-2.3-1.1-4.1v-8.7H355v-2.2h2.5v-3.8l2.8-.9zM381.3 141c0 5.9-4.1 8.4-7.9 8.4-4.3 0-7.6-3.2-7.6-8.2 0-5.3 3.5-8.4 7.9-8.4 4.5.1 7.6 3.4 7.6 8.2zm-12.6.2c0 3.5 2 6.1 4.8 6.1s4.8-2.6 4.8-6.2c0-2.7-1.3-6.1-4.8-6.1s-4.8 3.2-4.8 6.2zM384.6 138.2c0-1.9 0-3.5-.1-5h2.5l.1 3.1h.1c.7-2.1 2.5-3.5 4.4-3.5.3 0 .6 0 .8.1v2.7c-.3-.1-.6-.1-1-.1-2 0-3.5 1.5-3.9 3.7-.1.4-.1.9-.1 1.3v8.5h-2.9l.1-10.8zM396.3 141.7c.1 3.9 2.6 5.5 5.5 5.5 2.1 0 3.3-.4 4.4-.8l.5 2.1c-1 .5-2.8 1-5.3 1-4.9 0-7.8-3.2-7.8-8s2.8-8.6 7.5-8.6c5.2 0 6.6 4.6 6.6 7.5 0 .6-.1 1.1-.1 1.3h-11.3zm8.5-2.1c0-1.8-.8-4.7-4-4.7-2.9 0-4.2 2.7-4.4 4.7h8.4z"/></g></svg>